<svg width="16" height="15" viewBox="0 0 16 15" fill="none" xmlns="http://www.w3.org/2000/svg">
<g clip-path="url(#clip0_495_1771)">
<path fill-rule="evenodd" clip-rule="evenodd" d="M11.4646 12.8574C11.1962 13.0587 11.0038 13.2613 10.9083 13.4382C10.8216 13.5986 10.8089 13.7458 10.8593 13.8672C10.9198 14.0132 11.076 14.1221 11.3193 14.1634C11.4986 14.1938 11.7322 14.1893 12.0008 14.1506C12.2706 14.3815 12.6209 14.5211 13.0036 14.5211C13.8158 14.5211 14.4824 13.8925 14.5428 13.0957C14.7598 12.933 14.9277 12.7708 15.0328 12.6225C15.1754 12.4211 15.2086 12.2337 15.148 12.0877C15.0982 11.9676 14.9871 11.8735 14.8157 11.8212C14.6226 11.7623 14.3408 11.7547 14.0052 11.8031C13.7355 11.5728 13.3857 11.4338 13.0036 11.4338C12.1921 11.4338 11.5259 12.0614 11.4646 12.8574ZM14.2055 13.3245C13.9505 13.4819 13.6549 13.6338 13.3316 13.7679C13.0085 13.902 12.6922 14.004 12.4009 14.0733C12.5797 14.172 12.7852 14.2281 13.0036 14.2281C13.5736 14.2281 14.0549 13.8462 14.2055 13.3245ZM11.4791 13.2207C11.3342 13.3452 11.2262 13.4661 11.1661 13.5774C11.1297 13.6447 11.1087 13.704 11.1298 13.7549C11.1463 13.7945 11.1863 13.819 11.2375 13.8396C11.3177 13.8717 11.4227 13.8874 11.5466 13.8905C11.6116 13.8921 11.6813 13.8902 11.755 13.8848C11.6148 13.6922 11.518 13.466 11.4791 13.2207ZM14.2539 12.945C14.2367 12.2697 13.6831 11.7267 13.0036 11.7267C12.3133 11.7267 11.7529 12.2871 11.7529 12.9774C11.7529 13.3115 11.8842 13.6152 12.098 13.8396C12.434 13.7782 12.8208 13.6627 13.2194 13.4973C13.6181 13.3319 13.9731 13.1396 14.2539 12.945ZM2.52222 10.3018L2.11191 10.5101C2.06272 10.535 2.03173 10.5855 2.03173 10.6407C2.03173 10.6958 2.06272 10.7463 2.11191 10.7713L2.66606 11.0526L2.9665 11.6267C2.99179 11.675 3.0418 11.7052 3.09629 11.7052C3.15081 11.7052 3.20079 11.675 3.22607 11.6267L3.3645 11.3622C4.44898 12.4502 5.94913 13.1239 7.6054 13.1239C8.48337 13.1239 9.31745 12.9346 10.0691 12.5946C10.0839 12.5904 10.0977 12.584 10.1102 12.5758C12.1665 11.6265 13.5947 9.54605 13.5947 7.13462C13.5947 6.26301 13.4081 5.43461 13.0726 4.68716L13.1481 4.54299L13.7022 4.26165C13.7514 4.23669 13.7824 4.18618 13.7824 4.13102C13.7824 4.07585 13.7514 4.02534 13.7022 4.00038L13.1475 3.7191L12.8477 3.14515C12.8224 3.09681 12.7724 3.06651 12.7179 3.06648C12.6634 3.06646 12.6133 3.09672 12.5881 3.14506L12.387 3.52923C11.7941 2.74437 11.0125 2.10982 10.1101 1.6934C10.0977 1.6852 10.0839 1.67884 10.0692 1.67471C9.3176 1.33469 8.48343 1.14534 7.6054 1.14534C4.29983 1.14534 1.61612 3.82905 1.61612 7.13462C1.61612 8.29715 1.94809 9.38277 2.52222 10.3018ZM9.21497 1.66929C8.70433 1.51896 8.16421 1.43831 7.6054 1.43831C6.17023 1.43831 4.85829 1.97022 3.85634 2.84734C4.04976 3.05148 4.19609 3.28299 4.1397 3.58328C4.09698 3.81057 3.94019 3.96487 3.76897 4.11206C3.64438 4.2192 3.50882 4.32016 3.4596 4.48185C3.37836 4.74892 3.48523 5.04045 3.54948 5.32516C3.63005 5.68214 3.65475 6.02705 3.388 6.32263C3.17814 6.55519 2.88931 6.62184 2.59432 6.67659C2.36029 6.72007 2.12111 6.75265 1.94724 6.92708C1.93657 6.9378 1.92465 6.9465 1.91193 6.95321C1.91003 7.01351 1.90909 7.07395 1.90909 7.13462C1.90909 8.21746 2.21188 9.23014 2.73737 10.0925L2.9665 9.65468C2.99179 9.60637 3.04183 9.5761 3.09635 9.57613C3.15087 9.57613 3.20088 9.60646 3.22613 9.6548L3.52593 10.2288L4.08061 10.51C4.12982 10.535 4.16085 10.5855 4.16085 10.6406C4.16085 10.6958 4.12988 10.7463 4.08066 10.7713L3.52651 11.0526L3.50727 11.0894C4.5435 12.1629 5.99706 12.831 7.6054 12.831C8.16438 12.831 8.70468 12.7502 9.215 12.6H8.60568C7.93772 12.6 7.3954 12.0577 7.3954 11.3897C7.3954 10.7218 7.93772 10.1794 8.60568 10.1794H8.76444C9.27069 10.1794 9.68173 9.76844 9.68173 9.26216C9.68173 8.75591 9.27069 8.34487 8.76444 8.34487H5.8748C5.20684 8.34487 4.66455 7.80259 4.66455 7.13462C4.66455 6.46668 5.20684 5.92437 5.8748 5.92437H10.5427C11.049 5.92437 11.46 5.51336 11.46 5.00708C11.46 4.50083 11.049 4.08979 10.5427 4.08979H7.78007C7.1121 4.08979 6.56981 3.54751 6.56981 2.87954C6.56981 2.2116 7.1121 1.66929 7.78007 1.66929H9.21497ZM14.5282 12.734C14.584 12.6857 14.6345 12.6379 14.6791 12.5908C14.7644 12.5008 14.8275 12.4154 14.8614 12.3359C14.883 12.2852 14.8939 12.2395 14.8774 12.1999C14.8567 12.15 14.8015 12.1232 14.7302 12.1014C14.6085 12.0643 14.4451 12.0551 14.2522 12.0699C14.3925 12.2625 14.4893 12.4887 14.5282 12.734ZM9.99333 1.96226H7.78007C7.27379 1.96226 6.86278 2.37329 6.86278 2.87954C6.86278 3.38582 7.27379 3.79683 7.78007 3.79683H10.5427C11.2106 3.79683 11.7529 4.33914 11.7529 5.00708C11.7529 5.67505 11.2106 6.21733 10.5427 6.21733H5.8748C5.36853 6.21733 4.95752 6.62837 4.95752 7.13462C4.95752 7.6409 5.36853 8.0519 5.8748 8.0519H8.76444C9.43241 8.0519 9.9747 8.59422 9.9747 9.26216C9.9747 9.93013 9.43241 10.4724 8.76444 10.4724H8.60568C8.0994 10.4724 7.68837 10.8834 7.68837 11.3897C7.68837 11.896 8.0994 12.307 8.60568 12.307H9.99336C10.6172 12.0182 11.1802 11.6198 11.6573 11.1368C11.5708 10.933 11.4834 10.7185 11.4528 10.5062C11.4159 10.2505 11.4562 9.99754 11.6536 9.76255C11.7568 9.63962 11.8834 9.54564 12.0039 9.44614C12.1022 9.36499 12.1967 9.28026 12.2579 9.15889C12.3522 8.97212 12.3882 8.78063 12.4152 8.58742C12.4452 8.37273 12.4643 8.15585 12.5225 7.93894C12.5667 7.77429 12.6714 7.55685 12.8148 7.41637C12.9187 7.31456 13.0425 7.25201 13.1763 7.25216C13.2164 7.25219 13.2578 7.2577 13.3001 7.27003C13.3012 7.22506 13.3017 7.17991 13.3017 7.13462C13.3017 6.38875 13.1581 5.67613 12.8969 5.02296L12.8476 5.11703C12.8224 5.16534 12.7724 5.19561 12.7179 5.19561C12.6634 5.19561 12.6133 5.16534 12.5881 5.11703L12.2876 4.54299L11.7335 4.26165C11.6843 4.23669 11.6533 4.18621 11.6533 4.13105C11.6533 4.07588 11.6843 4.0254 11.7335 4.00041L12.1973 3.76495C11.6294 2.9928 10.8717 2.36884 9.99333 1.96226ZM3.21178 11.0222L3.28865 10.8753C3.30277 10.8483 3.32498 10.8264 3.35214 10.8126L3.69063 10.6408L3.35155 10.4688C3.32434 10.455 3.3021 10.433 3.28798 10.406L3.09617 10.0388L2.90393 10.4061C2.8898 10.4331 2.8676 10.455 2.84044 10.4688L2.50183 10.6407L2.84044 10.8126C2.8676 10.8264 2.8898 10.8483 2.90393 10.8753L3.09629 11.2428L3.18734 11.0689C3.1925 11.0523 3.20064 11.0364 3.21178 11.0222ZM13.2842 7.58348C13.2463 7.55822 13.2106 7.54516 13.176 7.54513C13.1168 7.54507 13.0658 7.58055 13.0198 7.62561C12.9134 7.72987 12.8383 7.89268 12.8055 8.01487C12.6896 8.44656 12.7279 8.87781 12.5195 9.29084C12.4391 9.45024 12.3195 9.56547 12.1904 9.67205C12.0835 9.76032 11.9695 9.84188 11.8779 9.95096C11.7123 10.1481 11.7123 10.3649 11.7657 10.5795C11.7927 10.688 11.833 10.7962 11.8764 10.9022C12.6705 10.0029 13.1853 8.85115 13.2842 7.58348ZM3.64112 3.04565C2.69967 3.95854 2.07201 5.19344 1.9366 6.57191C2.11909 6.46964 2.32971 6.42777 2.54085 6.38855C2.77238 6.34557 3.00579 6.30886 3.1705 6.12634C3.36652 5.90913 3.3229 5.65199 3.26369 5.38964C3.18819 5.05507 3.08384 4.71042 3.17932 4.39656C3.24512 4.18035 3.41135 4.03316 3.57799 3.8899C3.69805 3.78669 3.82183 3.68857 3.85177 3.5292C3.88956 3.32802 3.77328 3.18133 3.64112 3.04565ZM13.3122 4.1311L12.9737 4.30296C12.9465 4.31673 12.9243 4.33864 12.9102 4.36565L12.7179 4.73321L12.5255 4.36565C12.5114 4.33864 12.4892 4.31673 12.462 4.30296L12.1234 4.13105L12.462 3.95913C12.4892 3.94533 12.5114 3.92342 12.5255 3.89644L12.7177 3.52911L12.9095 3.89635C12.9237 3.92339 12.9459 3.94536 12.9731 3.95916L13.3122 4.1311ZM1.98488 0.478516C1.34322 0.478516 0.822266 0.999473 0.822266 1.64113C0.822266 2.28279 1.34322 2.80375 1.98488 2.80375C2.62657 2.80375 3.1475 2.28279 3.1475 1.64113C3.1475 0.999473 2.62657 0.478516 1.98488 0.478516ZM1.98488 0.771484C2.46485 0.771484 2.85453 1.16116 2.85453 1.64113C2.85453 2.1211 2.46485 2.51078 1.98488 2.51078C1.50491 2.51078 1.11523 2.1211 1.11523 1.64113C1.11523 1.16116 1.50491 0.771484 1.98488 0.771484Z" fill="#8B8B8B"/>
</g>
<defs>
<clipPath id="clip0_495_1771">
<rect width="15" height="15" fill="white" transform="translate(0.5)"/>
</clipPath>
</defs>
</svg>
