<svg width="16" height="15" viewBox="0 0 16 15" fill="none" xmlns="http://www.w3.org/2000/svg">
<path d="M5.89062 11.1447V11.9533C5.89062 12.0155 5.91532 12.0751 5.95927 12.119C6.00323 12.163 6.06284 12.1877 6.125 12.1877H6.42969C6.38428 12.3398 6.36061 12.4977 6.35938 12.6564C6.41094 13.3596 6.77422 14.2127 8.23438 14.2853C8.28616 14.2852 8.33643 14.2679 8.37734 14.2361C8.675 14.0017 8.69609 13.5705 8.43359 13.09C8.41177 13.0196 8.40828 12.9447 8.42345 12.8725C8.43863 12.8004 8.47197 12.7332 8.52031 12.6775C8.58067 12.6299 8.65227 12.5987 8.72821 12.5868C8.80415 12.5749 8.88188 12.5827 8.95391 12.6096C8.99844 12.6283 9.13438 12.6846 9.13203 12.9541C9.12395 13.0163 9.14089 13.0791 9.17913 13.1287C9.21737 13.1784 9.27378 13.2109 9.33594 13.2189C9.3981 13.227 9.46092 13.2101 9.51059 13.1718C9.56026 13.1336 9.5927 13.0772 9.60078 13.015C9.62792 12.8974 9.64129 12.7771 9.64062 12.6564C9.64047 12.4976 9.61678 12.3396 9.57031 12.1877H9.875C9.93716 12.1877 9.99677 12.163 10.0407 12.119C10.0847 12.0751 10.1094 12.0155 10.1094 11.9533V11.14C11.0469 9.75722 11.5156 8.38847 11.5156 7.06659C11.5156 3.60956 8.28828 0.867373 8.15 0.752529C8.10789 0.717451 8.05481 0.698242 8 0.698242C7.94519 0.698242 7.89211 0.717451 7.85 0.752529C7.71172 0.867373 4.48438 3.60956 4.48438 7.06659C4.48438 8.38847 4.95312 9.75722 5.89062 11.14V11.1447ZM6.35938 11.2502H7.15391C6.95553 11.3693 6.7846 11.5291 6.65234 11.7189H6.35938V11.2502ZM8.17578 12.3705C8.06916 12.4914 7.99667 12.6385 7.96578 12.7966C7.93488 12.9548 7.9467 13.1184 8 13.2705C8.00448 13.2834 8.00996 13.2959 8.01641 13.308C8.12109 13.4545 8.16402 13.6364 8.13594 13.8142C7.29688 13.7416 6.87969 13.3596 6.82812 12.6564C6.82688 12.4528 6.88117 12.2526 6.98516 12.0775C7.08711 11.8981 7.23466 11.7487 7.41286 11.6446C7.59106 11.5405 7.79361 11.4853 8 11.4846C8.22146 11.4956 8.43624 11.564 8.62322 11.6832C8.8102 11.8023 8.96293 11.9681 9.06641 12.1642C8.91331 12.1168 8.75044 12.1105 8.59412 12.1458C8.4378 12.1812 8.29353 12.2571 8.17578 12.3658V12.3705ZM9.64062 11.7189H9.34766C9.2154 11.5291 9.04447 11.3693 8.84609 11.2502H9.64062V11.7189ZM8 1.24706C8.63281 1.83065 11.0469 4.24003 11.0469 7.06659C11.0469 8.25956 10.625 9.50644 9.79297 10.7767H6.20703C5.375 9.50644 4.95312 8.25956 4.95312 7.06659C4.95312 4.24003 7.36719 1.83065 8 1.24706Z" fill="#8B8B8B"/>
<path d="M7.99995 8.90625C8.32444 8.90625 8.64163 8.81003 8.91143 8.62975C9.18123 8.44948 9.39151 8.19325 9.51569 7.89347C9.63986 7.59368 9.67236 7.2638 9.60905 6.94555C9.54575 6.6273 9.38949 6.33497 9.16005 6.10553C8.9306 5.87608 8.63827 5.71983 8.32002 5.65652C8.00177 5.59322 7.6719 5.62571 7.37211 5.74989C7.07233 5.87406 6.8161 6.08434 6.63582 6.35414C6.45555 6.62394 6.35933 6.94114 6.35933 7.26562C6.35933 7.70075 6.53218 8.11805 6.83985 8.42572C7.14753 8.7334 7.56483 8.90625 7.99995 8.90625ZM7.99995 6.09375C8.23173 6.09375 8.4583 6.16248 8.65101 6.29125C8.84372 6.42001 8.99393 6.60304 9.08262 6.81717C9.17132 7.0313 9.19453 7.26692 9.14931 7.49425C9.10409 7.72157 8.99248 7.93038 8.82859 8.09427C8.6647 8.25816 8.45589 8.36977 8.22857 8.41498C8.00125 8.4602 7.76563 8.43699 7.55149 8.3483C7.33736 8.2596 7.15434 8.1094 7.02557 7.91668C6.89681 7.72397 6.82808 7.4974 6.82808 7.26562C6.82808 6.95482 6.95154 6.65675 7.17131 6.43698C7.39108 6.21722 7.68915 6.09375 7.99995 6.09375ZM7.99995 3.98438C8.06211 3.98438 8.12173 3.95968 8.16568 3.91573C8.20963 3.87177 8.23433 3.81216 8.23433 3.75V2.8125C8.23433 2.75034 8.20963 2.69073 8.16568 2.64677C8.12173 2.60282 8.06211 2.57812 7.99995 2.57812C7.93779 2.57812 7.87818 2.60282 7.83422 2.64677C7.79027 2.69073 7.76558 2.75034 7.76558 2.8125V3.75C7.76558 3.81216 7.79027 3.87177 7.83422 3.91573C7.87818 3.95968 7.93779 3.98438 7.99995 3.98438ZM12.9218 11.843C12.5852 11.8446 12.2552 11.9369 11.9665 12.1101C11.6778 12.2834 11.4411 12.5311 11.2812 12.8273C11.1682 12.7964 11.0515 12.7806 10.9343 12.7805C10.5928 12.7792 10.2648 12.9135 10.0223 13.1539C9.77971 13.3942 9.64244 13.721 9.64058 14.0625C9.64058 14.1247 9.66527 14.1843 9.70922 14.2282C9.75318 14.2722 9.81279 14.2969 9.87495 14.2969C9.93711 14.2969 9.99673 14.2722 10.0407 14.2282C10.0846 14.1843 10.1093 14.1247 10.1093 14.0625C10.1093 13.8449 10.1958 13.6363 10.3496 13.4825C10.5034 13.3286 10.7121 13.2422 10.9296 13.2422C11.1472 13.2422 11.3558 13.3286 11.5097 13.4825C11.6635 13.6363 11.75 13.8449 11.75 14.0625C11.75 14.1247 11.7746 14.1843 11.8186 14.2282C11.8626 14.2722 11.9222 14.2969 11.9843 14.2969C12.0465 14.2969 12.1061 14.2722 12.1501 14.2282C12.194 14.1843 12.2187 14.1247 12.2187 14.0625C12.2186 13.861 12.1713 13.6623 12.0805 13.4824C11.9898 13.3025 11.8581 13.1464 11.696 13.0266C11.8485 12.7554 12.0866 12.5424 12.3731 12.421C12.6596 12.2996 12.9782 12.2766 13.2791 12.3557C13.58 12.4347 13.8462 12.6113 14.036 12.8578C14.2259 13.1043 14.3286 13.4068 14.3281 13.718C14.3281 13.7801 14.3528 13.8397 14.3967 13.8837C14.4407 13.9277 14.5003 13.9523 14.5625 13.9523C14.6246 13.9523 14.6842 13.9277 14.7282 13.8837C14.7721 13.8397 14.7968 13.7801 14.7968 13.718C14.7968 13.2207 14.5993 12.7438 14.2477 12.3921C13.896 12.0405 13.4191 11.843 12.9218 11.843ZM4.30386 13.0336C4.14278 13.1527 4.01168 13.3077 3.92096 13.4863C3.83023 13.6649 3.78238 13.8622 3.7812 14.0625C3.7812 14.1247 3.80589 14.1843 3.84985 14.2282C3.8938 14.2722 3.95342 14.2969 4.01558 14.2969C4.07774 14.2969 4.13735 14.2722 4.1813 14.2282C4.22526 14.1843 4.24995 14.1247 4.24995 14.0625C4.24995 13.8449 4.33638 13.6363 4.49021 13.4825C4.64405 13.3286 4.8527 13.2422 5.07026 13.2422C5.28782 13.2422 5.49647 13.3286 5.65031 13.4825C5.80415 13.6363 5.89058 13.8449 5.89058 14.0625C5.89058 14.1247 5.91527 14.1843 5.95922 14.2282C6.00318 14.2722 6.06279 14.2969 6.12495 14.2969C6.18711 14.2969 6.24673 14.2722 6.29068 14.2282C6.33463 14.1843 6.35933 14.1247 6.35933 14.0625C6.35933 13.8932 6.32598 13.7256 6.2612 13.5692C6.19642 13.4128 6.10147 13.2707 5.98177 13.151C5.86207 13.0313 5.71996 12.9363 5.56357 12.8716C5.40717 12.8068 5.23955 12.7734 5.07026 12.7734C4.95307 12.7736 4.83641 12.7893 4.72339 12.8203C4.52288 12.4578 4.20797 12.172 3.82785 12.0073C3.44773 11.8427 3.02379 11.8086 2.62223 11.9103C2.22068 12.012 1.86411 12.2439 1.60822 12.5696C1.35233 12.8954 1.21151 13.2967 1.20776 13.7109C1.20776 13.7731 1.23246 13.8327 1.27641 13.8767C1.32036 13.9206 1.37998 13.9453 1.44214 13.9453C1.5043 13.9453 1.56391 13.9206 1.60787 13.8767C1.65182 13.8327 1.67651 13.7731 1.67651 13.7109C1.67758 13.4004 1.78139 13.099 1.97176 12.8536C2.16212 12.6083 2.42834 12.4329 2.72887 12.3548C3.0294 12.2766 3.34735 12.3001 3.63311 12.4217C3.91886 12.5432 4.15636 12.7559 4.30854 13.0266L4.30386 13.0336Z" fill="#8B8B8B"/>
</svg>
