<svg width="26" height="29" viewBox="0 0 26 29" fill="none" xmlns="http://www.w3.org/2000/svg">
<g filter="url(#filter0_d_406_1532)">
<path d="M15.8279 11.9999L17.2429 13.4139L20.0709 10.5859C20.8211 9.83576 21.2425 8.81832 21.2425 7.75743C21.2425 6.69653 20.8211 5.67909 20.0709 4.92893C19.6995 4.55748 19.2585 4.26284 18.7732 4.06181C18.2879 3.86079 17.7677 3.75732 17.2424 3.75732C16.1815 3.75732 15.1641 4.17876 14.4139 4.92893L11.5859 7.75693L12.9999 9.17193L15.8279 6.34293C16.2031 5.96778 16.7119 5.75702 17.2424 5.75702C17.773 5.75702 18.2818 5.96778 18.6569 6.34293C19.0321 6.71808 19.2428 7.22689 19.2428 7.75743C19.2428 8.28797 19.0321 8.79678 18.6569 9.17193L15.8279 11.9999ZM12.9999 14.8289L14.4139 16.2429L11.5859 19.0709C10.8358 19.8211 9.81832 20.2425 8.75743 20.2425C7.69653 20.2425 6.67909 19.8211 5.92893 19.0709C5.17876 18.3208 4.75732 17.3033 4.75732 16.2424C4.75732 15.1815 5.17876 14.1641 5.92893 13.4139L8.75693 10.5859L10.1719 11.9999L7.34293 14.8289C6.96791 15.2041 6.75728 15.7128 6.75738 16.2433C6.75747 16.7737 6.96828 17.2824 7.34343 17.6574C7.71858 18.0324 8.22733 18.2431 8.75778 18.243C9.28823 18.2429 9.79691 18.0321 10.1719 17.6569L12.9999 14.8289Z" fill="#C4C4C4"/>
<path d="M15.829 10.586C16.0166 10.3983 16.122 10.1438 16.122 9.87849C16.122 9.61312 16.0166 9.35863 15.829 9.17099C15.6413 8.98334 15.3869 8.87793 15.1215 8.87793C14.8561 8.87793 14.6016 8.98334 14.414 9.17099L10.172 13.414C10.0765 13.5062 10.0003 13.6166 9.94789 13.7386C9.89548 13.8606 9.86789 13.9918 9.86674 14.1246C9.86558 14.2574 9.89088 14.389 9.94117 14.5119C9.99145 14.6348 10.0657 14.7465 10.1596 14.8404C10.2535 14.9343 10.3651 15.0085 10.488 15.0588C10.6109 15.1091 10.7426 15.1344 10.8754 15.1332C11.0082 15.1321 11.1394 15.1045 11.2614 15.0521C11.3834 14.9997 11.4937 14.9235 11.586 14.828L15.829 10.586Z" fill="#C4C4C4"/>
</g>
<defs>
<filter id="filter0_d_406_1532" x="-3" y="0" width="32" height="32" filterUnits="userSpaceOnUse" color-interpolation-filters="sRGB">
<feFlood flood-opacity="0" result="BackgroundImageFix"/>
<feColorMatrix in="SourceAlpha" type="matrix" values="0 0 0 0 0 0 0 0 0 0 0 0 0 0 0 0 0 0 127 0" result="hardAlpha"/>
<feOffset dy="4"/>
<feGaussianBlur stdDeviation="2"/>
<feComposite in2="hardAlpha" operator="out"/>
<feColorMatrix type="matrix" values="0 0 0 0 0 0 0 0 0 0 0 0 0 0 0 0 0 0 0.25 0"/>
<feBlend mode="normal" in2="BackgroundImageFix" result="effect1_dropShadow_406_1532"/>
<feBlend mode="normal" in="SourceGraphic" in2="effect1_dropShadow_406_1532" result="shape"/>
</filter>
</defs>
</svg>
