<svg width="329" height="250" viewBox="0 0 329 250" fill="none" xmlns="http://www.w3.org/2000/svg">
<g opacity="0.2">
<path d="M178.113 236.514C243.832 236.514 297.108 183.573 297.108 118.266C297.108 52.9602 243.832 0.019043 178.113 0.019043C112.394 0.019043 59.1187 52.9602 59.1187 118.266C59.1187 183.573 112.394 236.514 178.113 236.514Z" fill="#333333"/>
<path d="M198.187 103.124C212.141 103.124 223.454 91.8827 223.454 78.016C223.454 64.1494 212.141 52.9082 198.187 52.9082C184.233 52.9082 172.921 64.1494 172.921 78.016C172.921 91.8827 184.233 103.124 198.187 103.124Z" fill="#6D7879"/>
<path d="M213.167 69.5219C215.356 69.5219 217.131 67.7585 217.131 65.5832C217.131 63.4079 215.356 61.6445 213.167 61.6445C210.978 61.6445 209.204 63.4079 209.204 65.5832C209.204 67.7585 210.978 69.5219 213.167 69.5219Z" fill="#343434"/>
<path d="M279.706 139.213C286.855 124.755 252.339 93.3496 202.611 69.0681C152.884 44.7867 106.776 36.8237 99.6262 51.2823C92.4767 65.7409 126.993 97.1459 176.721 121.427C226.449 145.709 272.557 153.672 279.706 139.213Z" fill="#B4B4B4"/>
<path d="M197.368 79.6727C240.847 100.903 272.697 127.579 275.235 143.613C277.152 142.647 278.715 141.108 279.706 139.213C286.856 124.755 252.339 93.3497 202.611 69.0682C152.883 44.7868 106.776 36.8238 99.6263 51.2825C98.7221 53.2196 98.4516 55.3897 98.853 57.4875C113.176 49.6872 153.888 58.4419 197.368 79.6727Z" fill="#D9D9D9"/>
<path d="M220.406 123.217C223.257 117.452 209.494 104.93 189.666 95.2479C169.838 85.5661 151.453 82.391 148.603 88.1561C145.752 93.9212 159.515 106.443 179.343 116.125C199.171 125.807 217.555 128.982 220.406 123.217Z" fill="#696969"/>
<path d="M187.575 99.476C204.912 107.941 217.612 118.578 218.624 124.971C219.388 124.586 220.011 123.972 220.406 123.217C223.257 117.452 209.494 104.93 189.666 95.2477C169.838 85.5659 151.454 82.3909 148.603 88.156C148.242 88.9284 148.134 89.7937 148.295 90.6301C154.006 87.5199 170.239 91.0106 187.575 99.476Z" fill="#696969"/>
<path d="M178.08 244.451H20.3423L148.294 90.6299L219.361 125.331L178.08 244.451Z" fill="url(#paint0_linear_912_3790)"/>
</g>
<defs>
<linearGradient id="paint0_linear_912_3790" x1="205.807" y1="117.384" x2="78.3513" y2="269.28" gradientUnits="userSpaceOnUse">
<stop stop-color="#343434"/>
<stop offset="1" stop-color="white" stop-opacity="0"/>
</linearGradient>
</defs>
</svg>
