<svg width="15" height="15" viewBox="0 0 15 15" fill="none" xmlns="http://www.w3.org/2000/svg">
<path fill-rule="evenodd" clip-rule="evenodd" d="M7.5 13.125C4.39339 13.125 1.875 10.6066 1.875 7.5C1.875 4.39339 4.39339 1.875 7.5 1.875C10.6052 1.8784 13.1216 4.3948 13.125 7.5C13.125 10.6066 10.6066 13.125 7.5 13.125ZM7.10938 9.375C7.10938 9.15928 7.28428 8.98438 7.5 8.98438C7.71572 8.98438 7.89062 9.15928 7.89062 9.375C7.89062 9.59072 7.71572 9.76562 7.5 9.76562C7.28428 9.76562 7.10938 9.59072 7.10938 9.375ZM7.8125 7.8125C7.81261 7.985 7.67246 8.12489 7.5 8.125C7.3275 8.12511 7.18761 7.98534 7.1875 7.81284V5.3125C7.1875 5.13992 7.32742 5 7.5 5C7.67258 5 7.8125 5.13992 7.8125 5.3125V7.8125Z" fill="#D4AA59"/>
<path fill-rule="evenodd" clip-rule="evenodd" d="M7.5 1.25C4.04823 1.25 1.25 4.04823 1.25 7.5C1.25 10.9518 4.04823 13.75 7.5 13.75C10.9501 13.746 13.746 10.9501 13.75 7.5C13.75 4.04823 10.9518 1.25 7.5 1.25ZM7.5 13.125C4.39339 13.125 1.875 10.6066 1.875 7.5C1.875 4.39339 4.39339 1.875 7.5 1.875C10.6052 1.8784 13.1216 4.3948 13.125 7.5C13.125 10.6066 10.6066 13.125 7.5 13.125Z" fill="#D4AA59"/>
</svg>
