<svg width="24" height="24" viewBox="0 0 24 24" fill="none" xmlns="http://www.w3.org/2000/svg">
<path d="M20 19V10.5C20 10.3448 19.9639 10.1916 19.8944 10.0528C19.825 9.91393 19.7242 9.79315 19.6 9.7L12.6 4.45C12.4269 4.32018 12.2164 4.25 12 4.25C11.7836 4.25 11.5731 4.32018 11.4 4.45L4.4 9.7C4.2758 9.79315 4.175 9.91393 4.10557 10.0528C4.03614 10.1916 4 10.3448 4 10.5V19C4 19.2652 4.10536 19.5196 4.29289 19.7071C4.48043 19.8946 4.73478 20 5 20H9C9.26522 20 9.51957 19.8946 9.70711 19.7071C9.89464 19.5196 10 19.2652 10 19V16C10 15.7348 10.1054 15.4804 10.2929 15.2929C10.4804 15.1054 10.7348 15 11 15H13C13.2652 15 13.5196 15.1054 13.7071 15.2929C13.8946 15.4804 14 15.7348 14 16V19C14 19.2652 14.1054 19.5196 14.2929 19.7071C14.4804 19.8946 14.7348 20 15 20H19C19.2652 20 19.5196 19.8946 19.7071 19.7071C19.8946 19.5196 20 19.2652 20 19Z" stroke="#C4C4C4" stroke-width="2" stroke-linecap="round" stroke-linejoin="round"/>
</svg>
