<svg width="24" height="24" viewBox="0 0 24 24" fill="none" xmlns="http://www.w3.org/2000/svg">
<g clip-path="url(#clip0_420_1834)">
<path fill-rule="evenodd" clip-rule="evenodd" d="M23.7122 2.45031e-08C21.717 -0.000114013 19.7418 0.397825 17.9023 1.17052C16.0628 1.94321 14.3959 3.07513 12.9992 4.5H10.1252C9.03121 4.5 7.982 4.9346 7.20841 5.70818C6.43483 6.48177 6.00023 7.53098 6.00023 8.625V12H9.00023L12.0002 15V18H15.3752C16.4692 18 17.5185 17.5654 18.292 16.7918C19.0656 16.0182 19.5002 14.969 19.5002 13.875V11.001C20.9251 9.60435 22.057 7.93746 22.8297 6.09794C23.6024 4.25841 24.0003 2.28322 24.0002 0.288V2.45031e-08H23.7122ZM9.66023 9.75C10.0536 8.69607 10.5643 7.68974 11.1827 6.75H10.1252C9.09023 6.75 8.25023 7.59 8.25023 8.625V9.75H9.66023ZM14.2502 15.75V14.34C15.3042 13.9466 16.3105 13.4359 17.2502 12.8175V13.875C17.2502 14.91 16.4102 15.75 15.3752 15.75H14.2502ZM21.5702 2.43C19.2314 2.82887 17.0502 3.87245 15.272 5.44335C13.4939 7.01425 12.1894 9.05014 11.5052 11.322L12.6782 12.4965C14.9501 11.8123 16.986 10.5078 18.5569 8.72969C20.1278 6.95156 21.1714 4.77038 21.5702 2.4315V2.43ZM4.17023 15.42C4.28076 15.317 4.36941 15.1928 4.4309 15.0548C4.49239 14.9168 4.52545 14.7678 4.52812 14.6168C4.53078 14.4657 4.503 14.3157 4.44641 14.1756C4.38983 14.0355 4.30562 13.9083 4.19879 13.8014C4.09196 13.6946 3.96471 13.6104 3.82463 13.5538C3.68454 13.4972 3.5345 13.4694 3.38345 13.4721C3.23239 13.4748 3.08342 13.5078 2.94542 13.5693C2.80742 13.6308 2.68322 13.7195 2.58023 13.83L0.33023 16.08C0.2197 16.183 0.131047 16.3072 0.0695589 16.4452C0.00807097 16.5832 -0.0249918 16.7322 -0.0276569 16.8832C-0.0303221 17.0343 -0.00253513 17.1843 0.0540464 17.3244C0.110628 17.4645 0.194845 17.5917 0.301673 17.6986C0.408501 17.8054 0.535752 17.8896 0.675834 17.9462C0.815916 18.0028 0.96596 18.0306 1.11701 18.0279C1.26807 18.0252 1.41704 17.9922 1.55504 17.9307C1.69304 17.8692 1.81724 17.7805 1.92023 17.67L4.17023 15.42ZM8.67023 16.92C8.78076 16.817 8.86941 16.6928 8.9309 16.5548C8.99239 16.4168 9.02545 16.2678 9.02812 16.1168C9.03078 15.9657 9.003 15.8157 8.94641 15.6756C8.88983 15.5355 8.80562 15.4083 8.69879 15.3014C8.59196 15.1946 8.46471 15.1104 8.32463 15.0538C8.18454 14.9972 8.0345 14.9694 7.88345 14.9721C7.73239 14.9748 7.58342 15.0078 7.44542 15.0693C7.30742 15.1308 7.18322 15.2195 7.08023 15.33L0.33023 22.08C0.2197 22.183 0.131047 22.3072 0.0695589 22.4452C0.00807097 22.5832 -0.0249918 22.7322 -0.0276569 22.8832C-0.0303221 23.0343 -0.00253513 23.1843 0.0540464 23.3244C0.110628 23.4645 0.194845 23.5917 0.301673 23.6986C0.408501 23.8054 0.535752 23.8896 0.675834 23.9462C0.815916 24.0028 0.96596 24.0306 1.11701 24.0279C1.26807 24.0252 1.41704 23.9922 1.55504 23.9307C1.69304 23.8692 1.81724 23.7805 1.92023 23.67L8.67023 16.92ZM10.1702 19.83C10.3809 20.0409 10.4992 20.3269 10.4992 20.625C10.4992 20.9231 10.3809 21.2091 10.1702 21.42L7.92023 23.67C7.70697 23.8687 7.4249 23.9769 7.13345 23.9718C6.84199 23.9666 6.56392 23.8486 6.3578 23.6424C6.15168 23.4363 6.03361 23.1582 6.02847 22.8668C6.02333 22.5753 6.13151 22.2933 6.33023 22.08L8.58023 19.83C8.79117 19.6193 9.0771 19.501 9.37523 19.501C9.67336 19.501 9.95929 19.6193 10.1702 19.83Z" fill="#C4C4C4"/>
</g>
<defs>
<clipPath id="clip0_420_1834">
<rect width="24" height="24" fill="white"/>
</clipPath>
</defs>
</svg>
