<svg width="24" height="24" viewBox="0 0 24 24" fill="none" xmlns="http://www.w3.org/2000/svg">
<g clip-path="url(#clip0_495_1107)">
<path fill-rule="evenodd" clip-rule="evenodd" d="M23.712 2.45031e-08C21.7168 -0.000114013 19.7416 0.397825 17.9021 1.17052C16.0625 1.94321 14.3956 3.07513 12.999 4.5H10.125C9.03097 4.5 7.98176 4.9346 7.20817 5.70818C6.43458 6.48177 5.99999 7.53098 5.99999 8.625V12H8.99999L12 15V18H15.375C16.469 18 17.5182 17.5654 18.2918 16.7918C19.0654 16.0182 19.5 14.969 19.5 13.875V11.001C20.9249 9.60435 22.0568 7.93746 22.8295 6.09794C23.6022 4.25841 24.0001 2.28322 24 0.288V2.45031e-08H23.712ZM9.65999 9.75C10.0534 8.69607 10.5641 7.68974 11.1825 6.75H10.125C9.08999 6.75 8.24999 7.59 8.24999 8.625V9.75H9.65999ZM14.25 15.75V14.34C15.3039 13.9466 16.3102 13.4359 17.25 12.8175V13.875C17.25 14.91 16.41 15.75 15.375 15.75H14.25ZM21.57 2.43C19.2311 2.82887 17.0499 3.87245 15.2718 5.44335C13.4937 7.01425 12.1892 9.05014 11.505 11.322L12.678 12.4965C14.9498 11.8123 16.9857 10.5078 18.5566 8.72969C20.1275 6.95156 21.1711 4.77038 21.57 2.4315V2.43ZM4.16999 15.42C4.28052 15.317 4.36917 15.1928 4.43066 15.0548C4.49215 14.9168 4.52521 14.7678 4.52787 14.6168C4.53054 14.4657 4.50275 14.3157 4.44617 14.1756C4.38959 14.0355 4.30537 13.9083 4.19854 13.8014C4.09172 13.6946 3.96446 13.6104 3.82438 13.5538C3.6843 13.4972 3.53426 13.4694 3.3832 13.4721C3.23215 13.4748 3.08318 13.5078 2.94518 13.5693C2.80718 13.6308 2.68298 13.7195 2.57999 13.83L0.329986 16.08C0.219456 16.183 0.130803 16.3072 0.0693148 16.4452C0.00782683 16.5832 -0.0252359 16.7322 -0.0279011 16.8832C-0.0305663 17.0343 -0.00277928 17.1843 0.0538023 17.3244C0.110384 17.4645 0.194601 17.5917 0.301429 17.6986C0.408257 17.8054 0.535508 17.8896 0.67559 17.9462C0.815672 18.0028 0.965716 18.0306 1.11677 18.0279C1.26782 18.0252 1.41679 17.9922 1.55479 17.9307C1.69279 17.8692 1.81699 17.7805 1.91999 17.67L4.16999 15.42ZM8.66999 16.92C8.78052 16.817 8.86917 16.6928 8.93066 16.5548C8.99215 16.4168 9.02521 16.2678 9.02787 16.1168C9.03054 15.9657 9.00275 15.8157 8.94617 15.6756C8.88959 15.5355 8.80537 15.4083 8.69854 15.3014C8.59172 15.1946 8.46447 15.1104 8.32438 15.0538C8.1843 14.9972 8.03426 14.9694 7.8832 14.9721C7.73215 14.9748 7.58318 15.0078 7.44518 15.0693C7.30718 15.1308 7.18298 15.2195 7.07999 15.33L0.329986 22.08C0.219456 22.183 0.130803 22.3072 0.0693148 22.4452C0.00782683 22.5832 -0.0252359 22.7322 -0.0279011 22.8832C-0.0305663 23.0343 -0.00277928 23.1843 0.0538023 23.3244C0.110384 23.4645 0.194601 23.5917 0.301429 23.6986C0.408257 23.8054 0.535508 23.8896 0.67559 23.9462C0.815672 24.0028 0.965716 24.0306 1.11677 24.0279C1.26782 24.0252 1.41679 23.9922 1.55479 23.9307C1.69279 23.8692 1.81699 23.7805 1.91999 23.67L8.66999 16.92ZM10.17 19.83C10.3807 20.0409 10.499 20.3269 10.499 20.625C10.499 20.9231 10.3807 21.2091 10.17 21.42L7.91999 23.67C7.70672 23.8687 7.42465 23.9769 7.1332 23.9718C6.84175 23.9666 6.56367 23.8486 6.35755 23.6424C6.15143 23.4363 6.03337 23.1582 6.02822 22.8668C6.02308 22.5753 6.13127 22.2933 6.32999 22.08L8.57999 19.83C8.79092 19.6193 9.07686 19.501 9.37499 19.501C9.67311 19.501 9.95905 19.6193 10.17 19.83Z" fill="#C4C4C4"/>
</g>
<defs>
<clipPath id="clip0_495_1107">
<rect width="24" height="24" fill="white"/>
</clipPath>
</defs>
</svg>
