<svg width="24" height="24" viewBox="0 0 24 24" fill="none" xmlns="http://www.w3.org/2000/svg">
<path fill-rule="evenodd" clip-rule="evenodd" d="M13.2974 13.5577L14.2286 13.7293C14.8351 13.8426 15.4591 13.821 16.0563 13.6659C16.6534 13.5107 17.2091 13.2259 17.6837 12.8317C18.1583 12.4375 18.5403 11.9436 18.8024 11.385C19.0645 10.8265 19.2003 10.2171 19.2002 9.6001C19.2002 9.4585 19.1882 9.3169 19.1678 9.1777L17.4998 10.8457C17.3243 11.0214 17.116 11.1608 16.8866 11.2559C16.6572 11.351 16.4113 11.4 16.163 11.4001C15.3771 11.3998 14.6235 11.0874 14.0679 10.5315C13.5123 9.97572 13.2002 9.22199 13.2002 8.4361C13.2002 7.9357 13.3994 7.4557 13.7534 7.1017L15.4214 5.4337C15.282 5.41221 15.1413 5.40098 15.0002 5.4001C14.3832 5.4 13.7738 5.53583 13.2153 5.79794C12.6567 6.06005 12.1628 6.44199 11.7686 6.91662C11.3744 7.39125 11.0896 7.94689 10.9345 8.54405C10.7793 9.14121 10.7577 9.76522 10.871 10.3717L11.0426 11.3029L6.46702 15.8785C6.1792 16.1798 6.02071 16.5817 6.02547 16.9984C6.03022 17.415 6.19785 17.8132 6.49247 18.1078C6.78709 18.4025 7.18532 18.5701 7.60196 18.5749C8.01859 18.5796 8.42055 18.4211 8.72182 18.1333L13.2974 13.5577ZM17.8778 5.4133C17.9685 5.18532 17.9678 4.93119 17.8759 4.7037C17.7841 4.47621 17.6081 4.29284 17.3846 4.1917C17.2442 4.1185 16.217 3.6001 15.0002 3.6001C14.1191 3.59999 13.2488 3.79394 12.4511 4.16818C11.6534 4.54242 10.9479 5.08776 10.3848 5.76544C9.82165 6.44312 9.41469 7.23651 9.19281 8.08924C8.97094 8.94197 8.9396 9.83309 9.10102 10.6993L5.19382 14.6065C4.5573 15.243 4.19971 16.1063 4.19971 17.0065C4.19971 17.9067 4.5573 18.77 5.19382 19.4065C5.83034 20.043 6.69365 20.4006 7.59382 20.4006C8.494 20.4006 9.3573 20.043 9.99382 19.4065L13.901 15.4993C14.7672 15.6607 15.6584 15.6294 16.5111 15.4075C17.3638 15.1856 18.1572 14.7787 18.8349 14.2155C19.5126 13.6524 20.0579 12.9469 20.4321 12.1492C20.8064 11.3515 21.0003 10.4812 21.0002 9.6001C21.0002 8.3833 20.4818 7.3561 20.4086 7.2157L20.3918 7.1833C20.3243 7.04811 20.2255 6.9309 20.1038 6.84135C19.982 6.75179 19.8408 6.69243 19.6916 6.66818C19.5424 6.64392 19.3896 6.65545 19.2458 6.70182C19.1019 6.7482 18.9711 6.82808 18.8642 6.9349L16.2266 9.5749C16.2182 9.5831 16.2083 9.58954 16.1973 9.59387C16.1864 9.59819 16.1748 9.60031 16.163 9.6001C15.8545 9.59978 15.5588 9.47701 15.3407 9.25875C15.1227 9.04049 15.0002 8.7446 15.0002 8.4361C15.0002 8.4133 15.0098 8.3905 15.0266 8.3737L17.6642 5.7361C17.7569 5.64394 17.8297 5.53484 17.8778 5.4133Z" fill="#C4C4C4"/>
</svg>
