<svg width="15" height="15" viewBox="0 0 15 15" fill="none" xmlns="http://www.w3.org/2000/svg">
<path fill-rule="evenodd" clip-rule="evenodd" d="M7.5 12.5C6.5111 12.5 5.5444 12.2068 4.72215 11.6573C3.89991 11.1079 3.25904 10.327 2.88061 9.41342C2.50217 8.49979 2.40315 7.49445 2.59608 6.52455C2.789 5.55464 3.26521 4.66373 3.96447 3.96447C4.66373 3.2652 5.55465 2.789 6.52455 2.59607C7.49446 2.40315 8.49979 2.50216 9.41342 2.8806C10.3271 3.25904 11.1079 3.8999 11.6573 4.72215C12.2068 5.54439 12.5 6.51109 12.5 7.5C12.5 8.82608 11.9732 10.0979 11.0355 11.0355C10.0979 11.9732 8.82609 12.5 7.5 12.5ZM5 6.875H10C10.1658 6.875 10.3247 6.94085 10.4419 7.05806C10.5592 7.17527 10.625 7.33424 10.625 7.5C10.625 7.66576 10.5592 7.82473 10.4419 7.94194C10.3247 8.05915 10.1658 8.125 10 8.125H5C4.83424 8.125 4.67527 8.05915 4.55806 7.94194C4.44085 7.82473 4.375 7.66576 4.375 7.5C4.375 7.33424 4.44085 7.17527 4.55806 7.05806C4.67527 6.94085 4.83424 6.875 5 6.875Z" fill="#C4C4C4"/>
<path fill-rule="evenodd" clip-rule="evenodd" d="M4.02769 2.30331C5.0555 1.61656 6.26387 1.25 7.5 1.25C8.32076 1.25 9.13349 1.41166 9.89177 1.72575C10.6501 2.03984 11.3391 2.50022 11.9194 3.08058C12.4998 3.66095 12.9602 4.34994 13.2743 5.10823C13.5883 5.86651 13.75 6.67924 13.75 7.5C13.75 8.73613 13.3834 9.94451 12.6967 10.9723C12.0099 12.0001 11.0338 12.8012 9.89177 13.2742C8.74974 13.7473 7.49307 13.8711 6.28069 13.6299C5.06831 13.3888 3.95466 12.7935 3.08059 11.9194C2.20651 11.0453 1.61125 9.9317 1.37009 8.71931C1.12894 7.50693 1.25271 6.25027 1.72576 5.10823C2.1988 3.96619 2.99988 2.99007 4.02769 2.30331ZM4.72215 11.6573C5.5444 12.2068 6.5111 12.5 7.5 12.5C8.82609 12.5 10.0979 11.9732 11.0355 11.0355C11.9732 10.0979 12.5 8.82608 12.5 7.5C12.5 6.51109 12.2068 5.54439 11.6573 4.72215C11.1079 3.8999 10.3271 3.25904 9.41342 2.8806C8.49979 2.50216 7.49446 2.40315 6.52455 2.59607C5.55465 2.789 4.66373 3.2652 3.96447 3.96447C3.26521 4.66373 2.789 5.55464 2.59608 6.52455C2.40315 7.49445 2.50217 8.49979 2.88061 9.41342C3.25904 10.327 3.89991 11.1079 4.72215 11.6573Z" fill="#C4C4C4"/>
</svg>
