<svg width="20" height="20" viewBox="0 0 20 20" fill="none" xmlns="http://www.w3.org/2000/svg">
<g clip-path="url(#clip0_495_1105)">
<path fill-rule="evenodd" clip-rule="evenodd" d="M14.6195 17.1433C14.2616 17.4118 14.0051 17.6819 13.8777 17.9177C13.7622 18.1317 13.7452 18.3279 13.8123 18.4897C13.8931 18.6845 14.1013 18.8296 14.4258 18.8846C14.6648 18.9252 14.9762 18.9192 15.3343 18.8676C15.6941 19.1755 16.1612 19.3616 16.6715 19.3616C17.7545 19.3616 18.6432 18.5235 18.7238 17.4611C19.013 17.2442 19.237 17.0279 19.377 16.8302C19.5672 16.5617 19.6115 16.3118 19.5307 16.1171C19.4643 15.957 19.3161 15.8315 19.0877 15.7618C18.8302 15.6832 18.4545 15.6731 18.0069 15.7376C17.6473 15.4306 17.1809 15.2452 16.6715 15.2452C15.5894 15.2452 14.7012 16.0821 14.6195 17.1433ZM18.274 17.7662C17.934 17.976 17.5398 18.1785 17.1088 18.3574C16.678 18.5362 16.2563 18.6721 15.8678 18.7646C16.1063 18.8962 16.3802 18.971 16.6715 18.971C17.4314 18.971 18.0732 18.4617 18.274 17.7662ZM14.6387 17.6278C14.4456 17.7938 14.3016 17.9549 14.2214 18.1033C14.173 18.1931 14.145 18.2721 14.1731 18.3401C14.195 18.3928 14.2484 18.4255 14.3166 18.4529C14.4236 18.4958 14.5636 18.5167 14.7288 18.5208C14.8155 18.523 14.9084 18.5205 15.0067 18.5132C14.8197 18.2565 14.6906 17.9549 14.6387 17.6278ZM18.3386 17.2602C18.3156 16.3597 17.5775 15.6358 16.6715 15.6358C15.7511 15.6358 15.0039 16.383 15.0039 17.3034C15.0039 17.7488 15.1789 18.1538 15.4639 18.453C15.912 18.3712 16.4277 18.2171 16.9591 17.9966C17.4908 17.776 17.9641 17.5197 18.3386 17.2602ZM2.69629 13.7358L2.14922 14.0136C2.08363 14.0469 2.0423 14.1142 2.0423 14.1878C2.0423 14.2613 2.08363 14.3286 2.14922 14.3619L2.88809 14.737L3.28867 15.5024C3.32238 15.5668 3.38906 15.6071 3.46172 15.6071C3.53441 15.6071 3.60105 15.5668 3.63477 15.5024L3.81934 15.1498C5.26531 16.6004 7.26551 17.4987 9.47387 17.4987C10.6445 17.4987 11.7566 17.2463 12.7588 16.7929C12.7785 16.7874 12.797 16.7789 12.8136 16.7679C15.5554 15.5022 17.4596 12.7282 17.4596 9.51299C17.4596 8.35084 17.2107 7.24631 16.7635 6.24971L16.8641 6.05748L17.603 5.68236C17.6686 5.64908 17.7099 5.58174 17.7099 5.50818C17.7099 5.43463 17.6685 5.36729 17.6029 5.334L16.8633 4.95896L16.4636 4.19369C16.4299 4.12924 16.3632 4.08885 16.2905 4.08881C16.2179 4.08877 16.1511 4.12912 16.1174 4.19357L15.8493 4.7058C15.0588 3.65932 14.0166 2.81326 12.8134 2.25803C12.7969 2.24709 12.7785 2.23861 12.7589 2.23311C11.7568 1.77975 10.6446 1.52729 9.47387 1.52729C5.06644 1.52729 1.48816 5.10557 1.48816 9.51299C1.48816 11.063 1.93078 12.5105 2.69629 13.7358ZM11.62 2.22588C10.9391 2.02545 10.2189 1.91791 9.47387 1.91791C7.56031 1.91791 5.81105 2.62713 4.47512 3.79662C4.73301 4.06881 4.92812 4.37748 4.85293 4.77787C4.79598 5.08092 4.58691 5.28666 4.35863 5.48291C4.1925 5.62576 4.01176 5.76037 3.94613 5.97596C3.83781 6.33205 3.98031 6.72076 4.06598 7.10037C4.1734 7.57635 4.20633 8.03623 3.85066 8.43033C3.57086 8.74041 3.18574 8.82928 2.79242 8.90229C2.48039 8.96025 2.16148 9.00369 1.92965 9.23627C1.91543 9.25057 1.89953 9.26217 1.88258 9.27111C1.88004 9.3515 1.87879 9.43209 1.87879 9.51299C1.87879 10.9568 2.2825 12.307 2.98316 13.4569L3.28867 12.8731C3.32238 12.8087 3.3891 12.7683 3.4618 12.7683C3.53449 12.7683 3.60117 12.8088 3.63484 12.8732L4.03457 13.6385L4.77414 14.0135C4.83977 14.0468 4.88113 14.1141 4.88113 14.1877C4.88113 14.2613 4.83984 14.3286 4.77422 14.3619L4.03535 14.737L4.00969 14.786C5.39133 16.2174 7.32941 17.1081 9.47387 17.1081C10.2192 17.1081 10.9396 17.0005 11.62 16.8001H10.8076C9.91695 16.8001 9.19387 16.0771 9.19387 15.1864C9.19387 14.2958 9.91695 13.5728 10.8076 13.5728H11.0193C11.6943 13.5728 12.2423 13.0247 12.2423 12.3497C12.2423 11.6747 11.6943 11.1267 11.0193 11.1267H7.16641C6.27578 11.1267 5.55273 10.4036 5.55273 9.51299C5.55273 8.6224 6.27578 7.89932 7.16641 7.89932H13.3902C14.0653 7.89932 14.6133 7.35131 14.6133 6.67627C14.6133 6.00127 14.0653 5.45322 13.3902 5.45322H9.70676C8.81613 5.45322 8.09309 4.73018 8.09309 3.83955C8.09309 2.94897 8.81613 2.22588 9.70676 2.22588H11.62ZM18.7043 16.9788C18.7786 16.9145 18.8459 16.8506 18.9055 16.7878C19.0192 16.6679 19.1033 16.554 19.1485 16.448C19.1773 16.3804 19.1918 16.3196 19.1699 16.2667C19.1423 16.2002 19.0686 16.1644 18.9736 16.1354C18.8113 16.0858 18.5934 16.0737 18.3362 16.0934C18.5233 16.3502 18.6523 16.6518 18.7043 16.9788ZM12.6578 2.6165H9.70676C9.03172 2.6165 8.48371 3.16455 8.48371 3.83955C8.48371 4.51459 9.03172 5.0626 9.70676 5.0626H13.3902C14.2809 5.0626 15.0039 5.78568 15.0039 6.67627C15.0039 7.56689 14.2809 8.28994 13.3902 8.28994H7.16641C6.49137 8.28994 5.94336 8.83799 5.94336 9.51299C5.94336 10.188 6.49137 10.736 7.16641 10.736H11.0193C11.9099 10.736 12.6329 11.4591 12.6329 12.3497C12.6329 13.2403 11.9099 13.9634 11.0193 13.9634H10.8076C10.1325 13.9634 9.58449 14.5114 9.58449 15.1864C9.58449 15.8615 10.1325 16.4095 10.8076 16.4095H12.6578C13.4896 16.0244 14.2402 15.4932 14.8764 14.8492C14.761 14.5775 14.6446 14.2915 14.6037 14.0084C14.5546 13.6676 14.6083 13.3302 14.8714 13.0169C15.009 12.853 15.1779 12.7277 15.3386 12.595C15.4696 12.4868 15.5956 12.3738 15.6773 12.212C15.8029 11.963 15.8509 11.7077 15.8869 11.4501C15.927 11.1638 15.9524 10.8746 16.03 10.5854C16.0889 10.3659 16.2286 10.076 16.4197 9.88865C16.5582 9.75291 16.7234 9.66951 16.9017 9.66971C16.9552 9.66975 17.0104 9.67709 17.0668 9.69353C17.0682 9.63357 17.0689 9.57338 17.0689 9.51299C17.0689 8.5185 16.8774 7.56834 16.5292 6.69744L16.4635 6.82287C16.4298 6.88729 16.3632 6.92764 16.2905 6.92764C16.2178 6.92764 16.1511 6.88729 16.1174 6.82287L15.7168 6.05748L14.978 5.68236C14.9124 5.64908 14.8711 5.58178 14.8711 5.50822C14.8711 5.43467 14.9124 5.36736 14.978 5.33404L15.5964 5.0201C14.8392 3.99057 13.8289 3.15861 12.6578 2.6165ZM3.6157 14.6964L3.7182 14.5005C3.73703 14.4646 3.76664 14.4353 3.80285 14.4169L4.25418 14.1878L3.80207 13.9586C3.76578 13.9401 3.73613 13.9109 3.7173 13.8748L3.46156 13.3852L3.20523 13.8749C3.18641 13.9109 3.1568 13.9401 3.12059 13.9585L2.6691 14.1878L3.12059 14.4169C3.1568 14.4353 3.18641 14.4646 3.20523 14.5005L3.46172 14.9906L3.58312 14.7587C3.59 14.7365 3.60086 14.7154 3.6157 14.6964ZM17.0457 10.1115C16.9951 10.0778 16.9475 10.0604 16.9014 10.0603C16.8224 10.0603 16.7544 10.1076 16.6931 10.1676C16.5512 10.3067 16.451 10.5237 16.4073 10.6867C16.2529 11.2622 16.3038 11.8372 16.026 12.3879C15.9188 12.6005 15.7594 12.7541 15.5873 12.8962C15.4447 13.0139 15.2927 13.1227 15.1705 13.2681C14.9498 13.531 14.9497 13.8201 15.0209 14.1062C15.0569 14.2509 15.1106 14.3951 15.1686 14.5364C16.2273 13.3373 16.9137 11.8017 17.0457 10.1115ZM4.18816 4.06104C2.93289 5.27822 2.09602 6.92475 1.91547 8.76272C2.15879 8.62635 2.43961 8.57053 2.72113 8.51822C3.02984 8.46092 3.34105 8.41197 3.56066 8.16861C3.82203 7.879 3.76387 7.53615 3.68492 7.18635C3.58426 6.74025 3.44512 6.28072 3.57242 5.86225C3.66016 5.57397 3.8818 5.37772 4.10398 5.1867C4.26406 5.04908 4.4291 4.91826 4.46902 4.70576C4.51941 4.43752 4.36437 4.24193 4.18816 4.06104ZM17.0829 5.5083L16.6316 5.73744C16.5954 5.7558 16.5658 5.78502 16.547 5.82104L16.2905 6.31111L16.034 5.82104C16.0152 5.78502 15.9856 5.7558 15.9493 5.73744L15.4978 5.50822L15.9493 5.279C15.9856 5.26061 16.0152 5.23139 16.034 5.19541L16.2903 4.70564L16.5461 5.19529C16.5649 5.23135 16.5945 5.26064 16.6308 5.27904L17.0829 5.5083ZM1.97984 0.638184C1.1243 0.638184 0.429688 1.33279 0.429688 2.18834C0.429688 3.04389 1.1243 3.7385 1.97984 3.7385C2.83543 3.7385 3.53 3.04389 3.53 2.18834C3.53 1.33279 2.83543 0.638184 1.97984 0.638184ZM1.97984 1.02881C2.6198 1.02881 3.13937 1.54838 3.13937 2.18834C3.13937 2.8283 2.6198 3.34787 1.97984 3.34787C1.33988 3.34787 0.820312 2.8283 0.820312 2.18834C0.820312 1.54838 1.33988 1.02881 1.97984 1.02881Z" fill="#FFFDF6"/>
</g>
<defs>
<clipPath id="clip0_495_1105">
<rect width="20" height="20" fill="white"/>
</clipPath>
</defs>
</svg>
