<svg width="24" height="24" viewBox="0 0 24 24" fill="none" xmlns="http://www.w3.org/2000/svg">
<path d="M11.9999 21.9339C10.0352 21.9339 8.11453 21.3513 6.48089 20.2597C4.84725 19.1682 3.57398 17.6167 2.8221 15.8015C2.07022 13.9863 1.8735 11.9889 2.2568 10.0619C2.64011 8.13489 3.58623 6.36482 4.97552 4.97552C6.36482 3.58623 8.13489 2.64011 10.0619 2.2568C11.9889 1.8735 13.9863 2.07022 15.8015 2.8221C17.6167 3.57398 19.1682 4.84725 20.2597 6.48089C21.3513 8.11453 21.9339 10.0352 21.9339 11.9999C21.931 14.6337 20.8835 17.1587 19.0211 19.0211C17.1587 20.8835 14.6337 21.931 11.9999 21.9339ZM11.9999 3.06592C10.2329 3.06592 8.50565 3.58989 7.03646 4.57157C5.56727 5.55325 4.42218 6.94855 3.74598 8.58103C3.06979 10.2135 2.89287 12.0098 3.23759 13.7429C3.58231 15.4759 4.43319 17.0678 5.68263 18.3172C6.93207 19.5667 8.52396 20.4175 10.257 20.7623C11.99 21.107 13.7863 20.9301 15.4188 20.2539C17.0513 19.5777 18.4466 18.4326 19.4283 16.9634C20.41 15.4942 20.9339 13.7669 20.9339 11.9999C20.9313 9.63129 19.9892 7.36043 18.3143 5.68555C16.6394 4.01068 14.3686 3.06857 11.9999 3.06592Z" fill="#C4C4C4"/>
<path d="M14.5 13.5002C14.4984 14.0302 14.2872 14.538 13.9125 14.9127C13.5377 15.2874 13.0299 15.4987 12.5 15.5002V16.5102C12.5 16.6428 12.4473 16.77 12.3536 16.8638C12.2598 16.9576 12.1326 17.0102 12 17.0102C11.8674 17.0102 11.7402 16.9576 11.6464 16.8638C11.5527 16.77 11.5 16.6428 11.5 16.5102V15.5002H10.25C10.1174 15.5002 9.99021 15.4476 9.89645 15.3538C9.80268 15.26 9.75 15.1328 9.75 15.0002C9.75 14.8676 9.80268 14.7404 9.89645 14.6467C9.99021 14.5529 10.1174 14.5002 10.25 14.5002H12.5C12.7652 14.5002 13.0196 14.3949 13.2071 14.2073C13.3946 14.0198 13.5 13.7655 13.5 13.5002C13.5 13.235 13.3946 12.9807 13.2071 12.7931C13.0196 12.6056 12.7652 12.5002 12.5 12.5002H11.5C10.9696 12.5002 10.4609 12.2895 10.0858 11.9144C9.71071 11.5394 9.5 11.0307 9.5 10.5002C9.5 9.9698 9.71071 9.46109 10.0858 9.08602C10.4609 8.71095 10.9696 8.50023 11.5 8.50023V7.49023C11.5 7.35763 11.5527 7.23045 11.6464 7.13668C11.7402 7.04291 11.8674 6.99023 12 6.99023C12.1326 6.99023 12.2598 7.04291 12.3536 7.13668C12.4473 7.23045 12.5 7.35763 12.5 7.49023V8.50023H13.75C13.8826 8.50023 14.0098 8.55291 14.1036 8.64668C14.1973 8.74045 14.25 8.86763 14.25 9.00023C14.25 9.13284 14.1973 9.26002 14.1036 9.35379C14.0098 9.44756 13.8826 9.50023 13.75 9.50023H11.5C11.2348 9.50023 10.9804 9.60559 10.7929 9.79313C10.6054 9.98066 10.5 10.235 10.5 10.5002C10.5 10.7655 10.6054 11.0198 10.7929 11.2073C10.9804 11.3949 11.2348 11.5002 11.5 11.5002H12.5C13.0299 11.5018 13.5377 11.713 13.9125 12.0878C14.2872 12.4625 14.4984 12.9703 14.5 13.5002Z" fill="#C4C4C4"/>
</svg>
