<svg width="21" height="20" viewBox="0 0 21 20" fill="none" xmlns="http://www.w3.org/2000/svg">
<path d="M5.0835 16.5001L7.29183 15.6042C7.11127 15.0765 6.95502 14.5417 6.82308 14.0001C6.69114 13.4584 6.57655 12.9098 6.47933 12.3542L5.0835 13.2917V16.5001ZM8.54183 15.4167H12.4585C12.7641 14.5973 13.0002 13.7813 13.1668 12.9688C13.3335 12.1563 13.4168 11.4445 13.4168 10.8334C13.4168 9.23619 13.1877 7.83341 12.7293 6.62508C12.271 5.41675 11.5279 4.27091 10.5002 3.18758C9.47239 4.27091 8.72933 5.41675 8.271 6.62508C7.81266 7.83341 7.5835 9.23619 7.5835 10.8334C7.5835 11.4445 7.66683 12.1563 7.8335 12.9688C8.00016 13.7813 8.23627 14.5973 8.54183 15.4167ZM10.5002 10.6251C10.0974 10.6251 9.75364 10.4827 9.46891 10.198C9.18419 9.91328 9.04183 9.56953 9.04183 9.16675C9.04183 8.76397 9.18419 8.42022 9.46891 8.1355C9.75364 7.85078 10.0974 7.70841 10.5002 7.70841C10.9029 7.70841 11.2467 7.85078 11.5314 8.1355C11.8161 8.42022 11.9585 8.76397 11.9585 9.16675C11.9585 9.56953 11.8161 9.91328 11.5314 10.198C11.2467 10.4827 10.9029 10.6251 10.5002 10.6251ZM15.9168 16.5001V13.2917L14.521 12.3542C14.4238 12.9098 14.3092 13.4584 14.1772 14.0001C14.0453 14.5417 13.8891 15.0765 13.7085 15.6042L15.9168 16.5001ZM10.5002 1.47925C11.9168 2.72925 12.9654 4.11466 13.646 5.6355C14.3266 7.15633 14.6668 8.88897 14.6668 10.8334V10.9376L16.6043 12.2501C16.7849 12.3612 16.9238 12.507 17.021 12.6876C17.1182 12.8681 17.1668 13.0626 17.1668 13.2709V18.3334L13.0002 16.6667H8.00016L3.8335 18.3334V13.2709C3.8335 13.0626 3.88211 12.8681 3.97933 12.6876C4.07655 12.507 4.21544 12.3612 4.396 12.2501L6.3335 10.9376V10.8334C6.3335 8.88897 6.67377 7.15633 7.35433 5.6355C8.03489 4.11466 9.0835 2.72925 10.5002 1.47925Z" fill="#FFFDF6"/>
</svg>
